<?xml version="1.0" encoding="iso-8859-1"?>
<!-- Generator: Adobe Illustrator 19.0.0, SVG Export Plug-In . SVG Version: 6.00 Build 0)  -->
<svg version="1.1" id="Capa_1" xmlns="http://www.w3.org/2000/svg" xmlns:xlink="http://www.w3.org/1999/xlink" x="0px" y="0px"
	 viewBox="0 0 512 512" style="enable-background:new 0 0 512 512;" xml:space="preserve">
<g>
	<g>
		<path d="M437.02,74.98C388.667,26.629,324.38,0,256,0S123.333,26.629,74.98,74.98C26.629,123.332,0,187.62,0,256
			s26.629,132.668,74.98,181.02C123.333,485.371,187.62,512,256,512s132.667-26.629,181.02-74.98
			C485.371,388.668,512,324.38,512,256S485.371,123.332,437.02,74.98z M241,481.49C123.351,473.742,30,375.575,30,256
			S123.351,38.258,241,30.51V481.49z M271,30.51c35.626,2.346,69.022,12.976,98.273,29.99H271V30.51z M271,90.5h138.725
			c9.921,9.222,19.024,19.313,27.165,30.166H271V90.5z M271,150.666h184.9c5.113,9.664,9.544,19.741,13.232,30.167H271V150.666z
			 M271,210.833h206.462c2.004,9.839,3.352,19.912,4.028,30.167H271V210.833z M271,481.49V451.5h98.273
			C340.022,468.514,306.625,479.144,271,481.49z M409.725,421.5H271v-30.167h165.89C428.749,402.188,419.646,412.278,409.725,421.5z
			 M455.9,361.333H271v-30.167h198.132C465.444,341.592,461.013,351.669,455.9,361.333z M477.462,301.167H271V271h210.49
			C480.815,281.254,479.466,291.327,477.462,301.167z"/>
	</g>
</g>
<g>
</g>
<g>
</g>
<g>
</g>
<g>
</g>
<g>
</g>
<g>
</g>
<g>
</g>
<g>
</g>
<g>
</g>
<g>
</g>
<g>
</g>
<g>
</g>
<g>
</g>
<g>
</g>
<g>
</g>
</svg>
