<?xml version="1.0" encoding="iso-8859-1"?>
<!-- Generator: Adobe Illustrator 19.0.0, SVG Export Plug-In . SVG Version: 6.00 Build 0)  -->
<svg version="1.1" id="Capa_1" xmlns="http://www.w3.org/2000/svg" xmlns:xlink="http://www.w3.org/1999/xlink" x="0px" y="0px"
	 viewBox="0 0 512 512" style="enable-background:new 0 0 512 512;" xml:space="preserve">
<g>
	<g>
		<path d="M256,98.224c-86.998,0-157.776,70.778-157.776,157.776S169.002,413.776,256,413.776S413.776,342.998,413.776,256
			S342.998,98.224,256,98.224z M256,128.224c65.382,0,119.442,49.364,126.891,112.776H129.109
			C136.558,177.587,190.618,128.224,256,128.224z M156,335.446c-14.438-18.135-24.051-40.268-26.891-64.446H156V335.446z
			 M212.667,376.206c-9.456-3.419-18.393-7.926-26.667-13.365V271h26.667V376.206z M269.333,383.082
			c-4.383,0.457-8.831,0.694-13.333,0.694s-8.95-0.237-13.333-0.694V271h26.666V383.082z M326,362.841
			c-8.274,5.439-17.211,9.946-26.667,13.365V271H326V362.841z M356,335.446V271h26.891C380.051,295.178,370.438,317.311,356,335.446
			z"/>
	</g>
</g>
<g>
	<g>
		<rect x="241" width="30" height="56"/>
	</g>
</g>
<g>
	<g>
		<rect x="389.222" y="79.786" transform="matrix(0.7071 -0.7071 0.7071 0.7071 55.178 322.7825)" width="55.999" height="30"/>
	</g>
</g>
<g>
	<g>
		<rect x="456" y="241" width="56" height="30"/>
	</g>
</g>
<g>
	<g>
		<rect x="402.22" y="389.228" transform="matrix(0.7071 -0.7071 0.7071 0.7071 -172.8235 417.2222)" width="30" height="55.999"/>
	</g>
</g>
<g>
	<g>
		<rect x="241" y="456" width="30" height="56"/>
	</g>
</g>
<g>
	<g>
		<rect x="66.778" y="402.225" transform="matrix(0.7071 -0.7071 0.7071 0.7071 -267.2629 189.22)" width="55.999" height="30"/>
	</g>
</g>
<g>
	<g>
		<rect y="241" width="56" height="30"/>
	</g>
</g>
<g>
	<g>
		<rect x="79.779" y="66.777" transform="matrix(0.7071 -0.7071 0.7071 0.7071 -39.2574 94.7787)" width="30" height="55.999"/>
	</g>
</g>
<g>
</g>
<g>
</g>
<g>
</g>
<g>
</g>
<g>
</g>
<g>
</g>
<g>
</g>
<g>
</g>
<g>
</g>
<g>
</g>
<g>
</g>
<g>
</g>
<g>
</g>
<g>
</g>
<g>
</g>
</svg>
