<svg id="Capa_1" enable-background="new 0 0 512 512" height="512" viewBox="0 0 512 512" width="512" xmlns="http://www.w3.org/2000/svg"><g><path d="m256 0c-75.791 0-146.984 35.417-195 92.458v-31.458h-30v90h90v-30h-44.802c42.213-56.025 108.834-91 179.802-91 124.072 0 226 101.928 226 226h30c0-140.61-115.39-256-256-256z"/><path d="m476.888 303.9c-3.94 18.267-11.21 36.05-19.633 52.852l26.807 13.447c9.565-19.058 17.685-39.229 22.152-59.971z"/><path d="m42.016 184.384-28.682-8.818c-6.328 20.566-11.898 41.498-13.334 62.211l29.941 2.08c1.275-18.427 6.42-37.089 12.075-55.473z"/><path d="m23.983 361.923 27.275-12.48c-7.808-17.08-15.063-35.083-18.358-53.525l-29.531 5.272c3.735 20.918 11.752 41.353 20.614 60.733z"/><path d="m448.715 423.021-22.646-19.658c-12.319 14.18-26.367 26.807-41.763 37.5l17.139 24.639c17.431-12.129 33.339-26.411 47.27-42.481z"/><path d="m80.761 397.167-23.35 18.838c13.33 16.523 28.711 31.377 45.703 44.136l18.018-23.994c-15.015-11.265-28.594-24.376-40.371-38.98z"/><path d="m219.672 510.857 4.219-29.707c-18.574-2.637-36.768-10.067-54.053-17.245l-11.514 27.715c19.629 8.145 40.269 16.234 61.348 19.237z"/><path d="m283.173 512c21.182-2.241 42.012-9.569 61.919-16.981l-10.459-28.125c-17.563 6.533-35.933 13.29-54.624 15.282z"/><path d="m151.001 151.001h209.998v209.998h-209.998z" transform="matrix(.707 -.707 .707 .707 -106.039 256)"/></g></svg>