<?xml version="1.0" encoding="iso-8859-1"?>
<!-- Generator: Adobe Illustrator 19.0.0, SVG Export Plug-In . SVG Version: 6.00 Build 0)  -->
<svg version="1.1" id="Capa_1" xmlns="http://www.w3.org/2000/svg" xmlns:xlink="http://www.w3.org/1999/xlink" x="0px" y="0px"
	 viewBox="0 0 512 512" style="enable-background:new 0 0 512 512;" xml:space="preserve">
<g>
	<g>
		<path d="M344.767,102.04c-15.765,10.353-95.154,63.098-109.997,84.841c-8.886,13.015-12.49,28.553-10.15,43.751
			c2.398,15.574,10.706,28.922,23.395,37.584c9.193,6.275,19.837,9.514,30.855,9.514c4.188,0,8.433-0.469,12.669-1.416
			c15.006-3.357,28.163-12.373,37.048-25.389c14.837-21.733,35.162-114.79,39.085-133.224l7.598-35.693L344.767,102.04z
			 M303.809,234.011c-4.58,6.71-11.265,11.336-18.819,13.026c-7.185,1.605-14.308,0.328-20.061-3.599s-9.538-10.097-10.658-17.372
			c-1.178-7.651,0.696-15.562,5.277-22.271c6.272-9.189,38.849-33.582,70.413-55.519C320.98,185.63,310.084,224.818,303.809,234.011
			z"/>
	</g>
</g>
<g>
	<g>
		<path d="M437.02,74.98C388.667,26.629,324.38,0,256,0S123.333,26.629,74.98,74.98C26.629,123.333,0,187.62,0,256
			s26.629,132.667,74.98,181.02C123.333,485.371,187.62,512,256,512s132.667-26.629,181.02-74.98
			C485.371,388.667,512,324.38,512,256S485.371,123.333,437.02,74.98z M256,482C131.383,482,30,380.617,30,256S131.383,30,256,30
			s226,101.383,226,226S380.617,482,256,482z"/>
	</g>
</g>
<g>
</g>
<g>
</g>
<g>
</g>
<g>
</g>
<g>
</g>
<g>
</g>
<g>
</g>
<g>
</g>
<g>
</g>
<g>
</g>
<g>
</g>
<g>
</g>
<g>
</g>
<g>
</g>
<g>
</g>
</svg>
