<?xml version="1.0" encoding="iso-8859-1"?>
<!-- Generator: Adobe Illustrator 19.0.0, SVG Export Plug-In . SVG Version: 6.00 Build 0)  -->
<svg version="1.1" id="Capa_1" xmlns="http://www.w3.org/2000/svg" xmlns:xlink="http://www.w3.org/1999/xlink" x="0px" y="0px"
	 viewBox="0 0 511.999 511.999" style="enable-background:new 0 0 511.999 511.999;" xml:space="preserve">
<g>
	<g>
		<path d="M327.534,308.592V71.535C327.534,32.09,295.444,0,256,0s-71.535,32.09-71.535,71.535v237.06
			c-26.134,21.025-41.954,52.788-42.72,86.479c-0.696,30.606,10.703,59.685,32.097,81.878
			c21.371,22.169,49.972,34.611,80.536,35.037c0.548,0.007,1.092,0.011,1.639,0.011c30.233-0.001,58.67-11.65,80.228-32.91
			c21.951-21.648,34.04-50.547,34.04-81.375C370.285,362.963,354.441,330.212,327.534,308.592z M214.464,71.535
			c0-22.903,18.633-41.535,41.535-41.535s41.535,18.633,41.535,41.535v129.217h-83.071V71.535z M315.18,457.729
			c-16.186,15.963-37.63,24.565-60.385,24.263c-22.501-0.313-43.579-9.497-59.354-25.861
			c-15.798-16.388-24.217-37.829-23.704-60.375c0.61-26.821,14.173-51.994,36.28-67.337l6.448-4.475v-93.193h83.071v93.193
			l6.448,4.475c22.732,15.775,36.302,41.68,36.302,69.296C340.285,420.45,331.369,441.764,315.18,457.729z"/>
	</g>
</g>
<g>
</g>
<g>
</g>
<g>
</g>
<g>
</g>
<g>
</g>
<g>
</g>
<g>
</g>
<g>
</g>
<g>
</g>
<g>
</g>
<g>
</g>
<g>
</g>
<g>
</g>
<g>
</g>
<g>
</g>
</svg>
