<?xml version="1.0" encoding="iso-8859-1"?>
<!-- Generator: Adobe Illustrator 19.0.0, SVG Export Plug-In . SVG Version: 6.00 Build 0)  -->
<svg version="1.1" id="Capa_1" xmlns="http://www.w3.org/2000/svg" xmlns:xlink="http://www.w3.org/1999/xlink" x="0px" y="0px"
	 viewBox="0 0 512 512" style="enable-background:new 0 0 512 512;" xml:space="preserve">
<g>
	<g>
		<path d="M497,0H15C6.716,0,0,6.716,0,15v482c0,8.284,6.716,15,15,15h482c8.284,0,15-6.716,15-15V15C512,6.716,505.284,0,497,0z
			 M482,482H30V30h452V482z"/>
	</g>
</g>
<g>
	<g>
		<path d="M406,91H106c-8.284,0-15,6.716-15,15v300c0,8.284,6.716,15,15,15h300c8.284,0,15-6.716,15-15V106
			C421,97.716,414.284,91,406,91z M121,121h40.242c-15.617,10.994-29.248,24.625-40.242,40.242V121z M121,391v-40.242
			c10.994,15.617,24.625,29.248,40.242,40.242H121z M391,391h-40.242c15.617-10.994,29.248-24.625,40.242-40.242V391z M256,391
			c-74.439,0-135-60.561-135-135s60.561-135,135-135s135,60.561,135,135S330.439,391,256,391z M391,161.242
			c-10.994-15.617-24.625-29.248-40.242-40.242H391V161.242z"/>
	</g>
</g>
<g>
</g>
<g>
</g>
<g>
</g>
<g>
</g>
<g>
</g>
<g>
</g>
<g>
</g>
<g>
</g>
<g>
</g>
<g>
</g>
<g>
</g>
<g>
</g>
<g>
</g>
<g>
</g>
<g>
</g>
</svg>
